<svg width="21" height="15" viewBox="0 0 21 15" fill="none" xmlns="http://www.w3.org/2000/svg">
<path d="M13.8498 0.930511C13.7338 0.927977 13.6184 0.935992 13.5055 0.954111C12.8284 1.06283 12.2332 1.529 12.0034 2.20492C11.9535 2.35181 11.9084 2.49875 11.871 2.64763C11.2994 2.59614 10.8215 2.5866 10.5253 2.5866C10.2292 2.5866 9.75129 2.59614 9.17968 2.64763C9.14233 2.49901 9.09713 2.35237 9.04726 2.20574C8.81751 1.52982 8.22235 1.06364 7.54518 0.954925C7.31946 0.918688 7.08426 0.92268 6.85083 0.971201C5.91437 1.16595 4.57693 1.54381 3.52224 2.38559C3.51087 2.3947 3.49983 2.4042 3.48913 2.41407C3.15626 2.71939 2.92668 3.13166 2.64333 3.7129C2.35998 4.29414 2.0661 5.02532 1.79587 5.8589C1.25543 7.52604 0.811035 9.59915 0.811035 11.654C0.811063 11.7615 0.839283 11.8671 0.892967 11.9608C1.88684 13.695 4.04456 14.3525 5.36612 14.6146C6.09512 14.7591 6.84609 14.4647 7.28118 13.8716L7.80504 13.1571C8.58807 13.3183 9.49451 13.4248 10.5253 13.4248C11.5562 13.4248 12.4626 13.3183 13.2457 13.1571L13.7687 13.8708C14.2036 14.4646 14.9555 14.7583 15.6846 14.6138C17.0061 14.3517 19.163 13.6941 20.1569 11.96C20.2106 11.8663 20.2388 11.7607 20.2388 11.6532C20.2388 9.59833 19.7953 7.52518 19.2548 5.85808C18.9846 5.02453 18.6899 4.29333 18.4065 3.71209C18.1232 3.13084 17.8934 2.71858 17.5607 2.41326C17.55 2.40339 17.539 2.39389 17.5276 2.38478C16.473 1.54305 15.136 1.16514 14.199 0.970387C14.0823 0.946126 13.9658 0.933044 13.8498 0.930511ZM13.8175 2.1797C13.8564 2.18087 13.8962 2.18529 13.9359 2.19353C14.7639 2.36563 15.9265 2.73218 16.7033 3.34262C16.7555 3.39446 17.0128 3.74469 17.2603 4.25245C17.5121 4.76895 17.789 5.4532 18.0432 6.23731C18.5342 7.75173 18.9214 9.64246 18.9486 11.4595C18.2455 12.5109 16.5276 13.1711 15.433 13.3882C15.1909 13.4362 14.9505 13.3445 14.8007 13.14L14.5549 12.8055C14.8093 12.7206 15.0486 12.6325 15.2617 12.5435C16.327 12.0985 16.916 11.6133 16.916 11.6133C16.9796 11.56 17.0318 11.495 17.0698 11.4218C17.1077 11.3487 17.1307 11.2689 17.1373 11.1871C17.1439 11.1053 17.1341 11.0229 17.1083 10.9448C17.0826 10.8667 17.0415 10.7944 16.9873 10.7319C16.9331 10.6694 16.8669 10.6181 16.7926 10.5807C16.7182 10.5434 16.6371 10.5209 16.5538 10.5144C16.4706 10.5079 16.3869 10.5176 16.3075 10.5429C16.228 10.5682 16.1545 10.6087 16.0909 10.662C16.0909 10.662 15.6894 11.0075 14.7651 11.3936C13.8408 11.7796 12.4345 12.1748 10.5253 12.1748C8.6162 12.1748 7.2099 11.7796 6.28558 11.3936C5.36126 11.0075 4.95977 10.662 4.95977 10.662C4.84719 10.5647 4.70327 10.5096 4.55342 10.5065C4.42141 10.5037 4.29177 10.5413 4.18253 10.6143C4.07328 10.6872 3.98983 10.7918 3.94379 10.9135C3.89775 11.0352 3.89138 11.1679 3.92559 11.2933C3.95979 11.4188 4.03287 11.5306 4.13466 11.6133C4.13466 11.6133 4.72372 12.0985 5.78902 12.5435C6.00211 12.6325 6.24139 12.7206 6.49579 12.8055L6.24999 13.1408C6.09949 13.346 5.85907 13.4378 5.61688 13.3898C4.52225 13.1728 2.80434 12.5117 2.10126 11.4603C2.12845 9.64327 2.5157 7.75259 3.00665 6.23813C3.26084 5.45399 3.5386 4.76974 3.79038 4.25326C4.03789 3.74554 4.29459 3.39508 4.34652 3.34343C5.12332 2.73304 6.28636 2.36646 7.114 2.19435C7.43111 2.12843 7.73678 2.29412 7.84146 2.60206C7.86867 2.68207 7.88839 2.75614 7.90932 2.83074C6.96211 3.01556 5.9054 3.33653 4.90432 3.92123C4.82956 3.96159 4.76381 4.01633 4.71101 4.0822C4.65821 4.14806 4.61943 4.2237 4.59697 4.30461C4.57452 4.38552 4.56885 4.47004 4.58031 4.55315C4.59177 4.63626 4.62013 4.71625 4.66368 4.78836C4.70723 4.86047 4.7651 4.92322 4.83383 4.97288C4.90256 5.02254 4.98076 5.05809 5.06375 5.07741C5.14675 5.09673 5.23285 5.09944 5.31693 5.08536C5.40101 5.07128 5.48134 5.0407 5.55316 4.99545C7.39942 3.91709 9.6811 3.8366 10.5253 3.8366C11.3696 3.8366 13.6513 3.91709 15.4975 4.99545C15.5694 5.0407 15.6497 5.07128 15.7338 5.08536C15.8179 5.09944 15.904 5.09673 15.9869 5.07741C16.0699 5.05809 16.1481 5.02254 16.2169 4.97288C16.2856 4.92322 16.3435 4.86047 16.387 4.78836C16.4306 4.71625 16.4589 4.63626 16.4704 4.55315C16.4818 4.47004 16.4762 4.38552 16.4537 4.30461C16.4313 4.2237 16.3925 4.14806 16.3397 4.0822C16.2869 4.01633 16.2211 3.96159 16.1464 3.92123C15.145 3.33636 14.088 3.01553 13.1406 2.83074C13.1615 2.75593 13.1811 2.68152 13.2084 2.60125C13.3 2.3318 13.5451 2.17146 13.8175 2.1797ZM7.78601 7.16668C7.39775 7.16861 7.02597 7.3433 6.75204 7.65252C6.4781 7.96175 6.3243 8.38032 6.3243 8.81666C6.3243 9.253 6.4781 9.67157 6.75204 9.98079C7.02597 10.29 7.39775 10.4647 7.78601 10.4666C8.17427 10.4647 8.54605 10.29 8.81998 9.98079C9.09392 9.67157 9.24771 9.253 9.24771 8.81666C9.24771 8.38032 9.09392 7.96175 8.81998 7.65252C8.54605 7.3433 8.17427 7.16861 7.78601 7.16668ZM13.2564 7.16668C12.8631 7.16668 12.4859 7.34227 12.2077 7.65483C11.9296 7.96739 11.7734 8.39131 11.7734 8.83334C11.7734 9.27537 11.9296 9.69929 12.2077 10.0119C12.4859 10.3244 12.8631 10.5 13.2564 10.5C13.6497 10.5 14.027 10.3244 14.3051 10.0119C14.5832 9.69929 14.7395 9.27537 14.7395 8.83334C14.7395 8.39131 14.5832 7.96739 14.3051 7.65483C14.027 7.34227 13.6497 7.16668 13.2564 7.16668Z" fill="#27AE60"/>
</svg>
