<svg width="102" height="292" viewBox="0 0 102 292" fill="none" xmlns="http://www.w3.org/2000/svg">
<path d="M75.6898 28.9744C75.6898 28.9744 75.6898 22.712 66.9194 13.9568C58.149 5.20159 52.525 0.185593 52.525 0.185593C52.525 0.185593 48.1322 14.58 56.2794 23.3504C62.2638 29.5285 68.7567 35.1926 75.6898 40.2832V28.9744Z" fill="#92E3A9"/>
<path d="M62.967 68.084C62.967 68.084 62.967 61.8216 54.1966 53.0512C45.4262 44.2808 39.8022 39.28 39.8022 39.28C39.8022 39.28 35.4246 53.6744 43.5566 62.4448C49.5483 68.6198 56.0406 74.2884 62.967 79.3928V68.084Z" fill="#92E3A9"/>
<path d="M75.1272 39.6448C75.1272 39.6448 75.796 33.4128 85.4328 25.6152C95.0696 17.8176 101.21 13.4552 101.21 13.4552C101.21 13.4552 104.038 28.2752 95.024 36.088C88.4198 41.5862 81.3679 46.5231 73.9417 50.8472L75.1272 39.6448Z" fill="#92E3A9"/>
<path d="M59.7597 85.8224C59.7597 85.8224 61.0822 79.7424 71.479 72.9632C81.8758 66.184 88.427 62.5056 88.427 62.5056C88.427 62.5056 89.6885 77.508 79.9453 84.3784C72.8039 89.1518 65.2736 93.316 57.4341 96.8272L59.7597 85.8224Z" fill="#92E3A9"/>
<path d="M62.6629 136.15C62.6629 136.15 62.6629 129.887 71.4181 121.132C80.1733 112.377 85.8125 107.361 85.8125 107.361C85.8125 107.361 90.2053 121.77 82.0581 130.526C76.0831 136.712 69.5948 142.382 62.6629 147.474V136.15Z" fill="#92E3A9"/>
<path d="M62.511 148.446C62.511 148.446 63.3926 142.245 55.9598 132.334C48.527 122.424 43.6782 116.648 43.6782 116.648C43.6782 116.648 37.3246 130.328 44.119 140.117C49.1699 147.069 54.7932 153.588 60.9302 159.603L62.511 148.446Z" fill="#92E3A9"/>
<path d="M53.863 184.85C53.863 184.85 53.863 178.603 62.6334 169.833C71.4038 161.062 77.0278 156.153 77.0278 156.153C77.0278 156.153 81.4206 170.547 73.2734 179.302C67.2896 185.486 60.7967 191.155 53.863 196.25V184.85Z" fill="#92E3A9"/>
<path d="M59.7141 217.88C59.7141 217.88 58.1942 211.8 64.411 201.16C70.6278 190.52 74.8534 184.212 74.8534 184.212C74.8534 184.212 82.727 197.041 77.0878 207.574C72.8574 215.061 68.0068 222.179 62.5869 228.854L59.7141 217.88Z" fill="#92E3A9"/>
<path d="M76.48 27.424C76.0374 33.9384 75.2357 40.4235 74.0784 46.8496C70.6128 64.7552 61.9184 76.3072 58.4832 92.4496C55.048 108.592 64.9736 129.462 62.3136 150.21C59.6536 170.958 51.552 182.525 53.832 196.387C56.112 210.25 68.272 247.763 68.272 247.763" stroke="#263238" stroke-width="1.78978" stroke-linecap="round" stroke-linejoin="round"/>
<path d="M75.0518 43.8096L84.491 36.544" stroke="#263238" stroke-width="1.78978" stroke-linecap="round" stroke-linejoin="round"/>
<path d="M75.4772 35.4648L71.5403 28.4272" stroke="#263238" stroke-width="1.78978" stroke-linecap="round" stroke-linejoin="round"/>
<path d="M59.0151 91.72C59.0151 91.72 66.9192 85.7768 75.0512 79.8488" stroke="#263238" stroke-width="1.78978" stroke-linecap="round" stroke-linejoin="round"/>
<path d="M62.9672 79.3168C62.9672 79.3168 56.3704 66.3968 48.9072 57.824" stroke="#263238" stroke-width="1.78978" stroke-linecap="round" stroke-linejoin="round"/>
<path d="M62.9677 145.057C67.4964 136.74 73.2049 129.121 79.9156 122.439" stroke="#263238" stroke-width="1.78978" stroke-linecap="round" stroke-linejoin="round"/>
<path d="M61.4319 153.842C59.0078 148.187 56.1201 142.742 52.7983 137.563C48.2383 130.754 47.5087 129.872 47.5087 129.872" stroke="#263238" stroke-width="1.78978" stroke-linecap="round" stroke-linejoin="round"/>
<path d="M53.863 196.372C55.8702 191.395 58.2534 186.578 60.9918 181.962C63.7261 177.665 66.8067 173.598 70.203 169.802" stroke="#263238" stroke-width="1.78978" stroke-linecap="round" stroke-linejoin="round"/>
<path d="M62.5715 228.778C62.1129 224.029 62.9315 219.243 64.9427 214.916C68.2411 208.547 71.9651 200.187 73.5155 196.904" stroke="#263238" stroke-width="1.78978" stroke-linecap="round" stroke-linejoin="round"/>
<path d="M18.2947 112.605C18.2947 112.605 17.6107 108.698 22.1555 102.238C26.7003 95.7784 29.7555 92.024 29.7555 92.024C29.7555 92.024 34.0571 100.566 29.9075 106.95C26.8246 111.468 23.3671 115.719 19.5715 119.658L18.2947 112.605Z" fill="#92E3A9"/>
<path d="M30.5156 135.8C30.5156 135.8 29.8316 131.863 34.3764 125.418C38.9212 118.974 41.9764 115.219 41.9764 115.219C41.9764 115.219 46.278 123.777 42.1284 130.146C39.0494 134.667 35.5916 138.918 31.7924 142.853L30.5156 135.8Z" fill="#92E3A9"/>
<path d="M19.7993 119.232C19.7993 119.232 18.7353 115.402 11.8193 111.632C4.90329 107.862 0.601686 105.704 0.601686 105.704C0.601686 105.704 0.434475 115.234 6.95527 119.232C11.6913 121.964 16.6488 124.293 21.7753 126.194L19.7993 119.232Z" fill="#92E3A9"/>
<path d="M34.4521 146.516C34.4521 146.516 32.9322 142.822 25.697 139.737C18.4618 136.651 13.917 135.025 13.917 135.025C13.917 135.025 14.7529 144.555 21.6385 147.808C26.6378 150.025 31.8137 151.82 37.1121 153.174L34.4521 146.516Z" fill="#92E3A9"/>
<path d="M38.1004 178.36C38.1004 178.36 37.4164 174.438 30.9716 169.894C24.5268 165.349 20.438 162.81 20.438 162.81C20.438 162.81 19.2524 172.341 25.3172 176.931C29.7372 180.142 34.4202 182.974 39.3164 185.398L38.1004 178.36Z" fill="#92E3A9"/>
<path d="M39.5137 186.097C39.5137 186.097 38.2824 182.312 41.8696 175.29C45.4568 168.267 47.9496 164.118 47.9496 164.118C47.9496 164.118 53.4216 171.961 50.2296 178.877C47.7955 183.785 44.9586 188.483 41.7481 192.922L39.5137 186.097Z" fill="#92E3A9"/>
<path d="M50.5182 217.758C50.5182 217.758 50.9742 213.806 57.1454 208.897C63.3166 203.987 67.2534 201.297 67.2534 201.297C67.2534 201.297 68.9862 210.721 63.195 215.676C58.9655 219.135 54.4558 222.236 49.7126 224.948L50.5182 217.758Z" fill="#92E3A9"/>
<path d="M48.8924 208C48.8924 208 48.2084 204.063 41.7636 199.518C35.3188 194.974 31.2453 192.45 31.2453 192.45C31.2453 192.45 30.0596 201.981 36.1092 206.571C40.5359 209.78 45.2238 212.612 50.1236 215.038L48.8924 208Z" fill="#92E3A9"/>
<path d="M48.8006 229.341C48.8006 229.341 49.1502 225.358 44.0582 219.339C38.9662 213.32 35.6679 209.809 35.6679 209.809C35.6679 209.809 32.1111 218.701 36.8079 224.705C40.2769 228.939 44.0899 232.879 48.2079 236.485L48.8006 229.341Z" fill="#92E3A9"/>
<path d="M17.611 111.693C18.6003 115.734 19.813 119.718 21.2437 123.625C25.3477 134.462 32.0358 140.77 35.9574 150.529C39.879 160.287 35.9574 174.438 39.8334 187.161C43.7094 199.883 50.0934 206.222 50.139 215.205C50.1846 224.188 46.719 249.01 46.719 249.01" stroke="#263238" stroke-width="1.78978" stroke-linecap="round" stroke-linejoin="round"/>
<path d="M20.301 121.831L13.5978 118.32" stroke="#263238" stroke-width="1.78978" stroke-linecap="round" stroke-linejoin="round"/>
<path d="M19.1149 116.648L20.8325 111.814" stroke="#263238" stroke-width="1.78978" stroke-linecap="round" stroke-linejoin="round"/>
<path d="M35.562 150.118C35.562 150.118 29.9532 147.261 24.2228 144.418" stroke="#263238" stroke-width="1.78978" stroke-linecap="round" stroke-linejoin="round"/>
<path d="M31.7315 142.853C33.3802 137.65 35.5549 132.628 38.2219 127.866" stroke="#263238" stroke-width="1.78978" stroke-linecap="round" stroke-linejoin="round"/>
<path d="M38.8748 184.014C35.1345 179.292 30.7317 175.135 25.8028 171.672" stroke="#263238" stroke-width="1.78978" stroke-linecap="round" stroke-linejoin="round"/>
<path d="M40.791 189.365C41.6787 185.567 42.8837 181.85 44.3933 178.254C46.5061 173.466 46.871 172.842 46.871 172.842" stroke="#263238" stroke-width="1.78978" stroke-linecap="round" stroke-linejoin="round"/>
<path d="M49.8499 221.984C52.0249 219.282 54.436 216.78 57.0546 214.506C58.7222 213.27 60.2878 211.903 61.7363 210.417" stroke="#263238" stroke-width="1.78978" stroke-linecap="round" stroke-linejoin="round"/>
<path d="M50.1387 215.205C48.3219 212.305 46.2895 209.546 44.0587 206.951C41.8759 204.567 39.5019 202.366 36.9603 200.37" stroke="#263238" stroke-width="1.78978" stroke-linecap="round" stroke-linejoin="round"/>
<path d="M48.2384 236.485C47.9967 233.442 46.9473 230.52 45.1985 228.018C42.4321 224.37 39.1184 219.537 37.872 217.637" stroke="#263238" stroke-width="1.78978" stroke-linecap="round" stroke-linejoin="round"/>
<path d="M77.3924 291.813H37.4772C36.6839 291.813 35.9219 291.503 35.354 290.949C34.786 290.396 34.457 289.642 34.4372 288.849L28.7068 244.678H86.0412L80.3108 288.849C80.2921 289.621 79.98 290.358 79.4379 290.908C78.8958 291.459 78.1644 291.782 77.3924 291.813Z" fill="#263238"/>
<path d="M85.5846 252.141H28.7669C27.5844 252.145 26.4484 251.68 25.6079 250.848C24.7674 250.016 24.291 248.885 24.2829 247.702C24.3024 246.522 24.779 245.395 25.6125 244.559C26.4459 243.722 27.5713 243.242 28.7517 243.218H85.5846C86.1727 243.216 86.7554 243.331 87.2993 243.554C87.8433 243.778 88.3377 244.107 88.7543 244.522C89.1709 244.937 89.5014 245.43 89.7269 245.974C89.9525 246.517 90.0685 247.099 90.0685 247.687C90.0665 248.274 89.949 248.855 89.7226 249.396C89.4962 249.938 89.1653 250.429 88.7489 250.843C88.3325 251.256 87.8388 251.584 87.2959 251.806C86.7529 252.029 86.1714 252.143 85.5846 252.141Z" fill="#263238"/>
</svg>
