<svg width="8" height="9" viewBox="0 0 8 9" fill="none" xmlns="http://www.w3.org/2000/svg">
<path d="M1.09996 0C0.492469 0 0 0.484773 0 1.08277V7.91723C0 8.51523 0.492469 9 1.09996 9C1.70745 9 2.19992 8.51523 2.19992 7.91723V1.08277C2.19992 0.484772 1.70745 0 1.09996 0Z" fill="#6FCF97"/>
<path d="M4.0808 2.86365C3.52803 2.86365 3.07993 3.30475 3.07993 3.84888V6.22122C3.07993 6.76535 3.52803 7.20646 4.0808 7.20646C4.63357 7.20646 5.08168 6.76535 5.08168 6.22122V3.84888C5.08168 3.30475 4.63357 2.86365 4.0808 2.86365Z" fill="#6FCF97"/>
<path d="M3.07993 1.39433C3.07993 0.850201 3.52803 0.409097 4.0808 0.409097C4.63357 0.409097 5.08168 0.850201 5.08168 1.39433V1.59527C5.08168 2.1394 4.63357 2.5805 4.0808 2.5805C3.52803 2.5805 3.07993 2.1394 3.07993 1.59527V1.39433Z" fill="#6FCF97"/>
<path d="M6.99912 3.36595C6.44635 3.36595 5.99824 3.80705 5.99824 4.35119V4.55212C5.99824 5.09625 6.44635 5.53735 6.99912 5.53735C7.55189 5.53735 8 5.09625 8 4.55212V4.35119C8 3.80705 7.55189 3.36595 6.99912 3.36595Z" fill="#6FCF97"/>
</svg>
